<svg xmlns="http://www.w3.org/2000/svg" version="1.1" xmlns:xlink="http://www.w3.org/1999/xlink" xmlns:svgjs="http://svgjs.dev/svgjs" viewBox="0 0 800 800"><defs><linearGradient x1="50%" y1="0%" x2="50%" y2="100%" id="ffflurry-grad" gradientTransform="rotate(270)"><stop stop-color="hsl(238, 82%, 13%)" stop-opacity="1" offset="0%"></stop><stop stop-color="hsl(230, 55%, 50%)" stop-opacity="1" offset="45%"></stop><stop stop-color="hsl(230, 55%, 70%)" stop-opacity="1" offset="100%"></stop></linearGradient></defs><rect width="100%" height="100%" fill="hsl(238, 82%, 13%)"></rect><g fill="url(#ffflurry-grad)"><rect width="76" height="2" x="698" y="108" rx="1" transform="rotate(21, 736, 109)" opacity="0.31"></rect><rect width="72" height="2" x="721" y="571" rx="1" transform="rotate(21, 757, 572)" opacity="0.32"></rect><rect width="191" height="2" x="306.5" y="714" rx="1" transform="rotate(21, 402, 715)" opacity="0.87"></rect><rect width="118" height="2" x="232" y="575" rx="1" transform="rotate(21, 291, 576)" opacity="0.74"></rect><rect width="233" height="2" x="290.5" y="105" rx="1" transform="rotate(21, 407, 106)" opacity="0.60"></rect><rect width="157" height="2" x="532.5" y="227" rx="1" transform="rotate(21, 611, 228)" opacity="0.54"></rect><rect width="160" height="2" x="483" y="339" rx="1" transform="rotate(21, 563, 340)" opacity="0.17"></rect><rect width="185" height="2" x="444.5" y="593" rx="1" transform="rotate(21, 537, 594)" opacity="0.54"></rect><rect width="279" height="2" x="201.5" y="303" rx="1" transform="rotate(21, 341, 304)" opacity="0.81"></rect><rect width="132" height="2" x="602" y="734" rx="1" transform="rotate(21, 668, 735)" opacity="0.81"></rect><rect width="227" height="2" x="476.5" y="76" rx="1" transform="rotate(21, 590, 77)" opacity="0.70"></rect><rect width="253" height="2" x="-28.5" y="253" rx="1" transform="rotate(21, 98, 254)" opacity="0.55"></rect><rect width="132" height="2" x="406" y="455" rx="1" transform="rotate(21, 472, 456)" opacity="0.22"></rect><rect width="168" height="2" x="75" y="85" rx="1" transform="rotate(21, 159, 86)" opacity="0.85"></rect><rect width="153" height="2" x="56.5" y="447" rx="1" transform="rotate(21, 133, 448)" opacity="0.90"></rect><rect width="203" height="2" x="8.5" y="685" rx="1" transform="rotate(21, 110, 686)" opacity="0.55"></rect><rect width="107" height="2" x="605.5" y="572" rx="1" transform="rotate(21, 659, 573)" opacity="0.58"></rect><rect width="53" height="2" x="707.5" y="29" rx="1" transform="rotate(21, 734, 30)" opacity="0.76"></rect><rect width="81" height="2" x="705.5" y="227" rx="1" transform="rotate(21, 746, 228)" opacity="0.48"></rect><rect width="140" height="2" x="652" y="401" rx="1" transform="rotate(21, 722, 402)" opacity="0.95"></rect></g></svg>